<?xml version="1.0" encoding="UTF-8"?>
<!DOCTYPE svg PUBLIC "-//W3C//DTD SVG 1.1//EN" "http://www.w3.org/Graphics/SVG/1.1/DTD/svg11.dtd">
<!-- Creator: CorelDRAW 2020 (64-Bit) -->
<svg xmlns="http://www.w3.org/2000/svg" xml:space="preserve" width="6.5mm" height="6.5mm" version="1.1" style="shape-rendering:geometricPrecision; text-rendering:geometricPrecision; image-rendering:optimizeQuality; fill-rule:evenodd; clip-rule:evenodd"
viewBox="0 0 650 650"
 xmlns:xlink="http://www.w3.org/1999/xlink"
 xmlns:xodm="http://www.corel.com/coreldraw/odm/2003">
 <defs>
  <style type="text/css">
   <![CDATA[
    .fil0 {fill:black}
    .fil1 {fill:black;fill-rule:nonzero}
   ]]>
  </style>
 </defs>
 <g id="Слой_x0020_1">
  <metadata id="CorelCorpID_0Corel-Layer"/>
  <rect class="fil0" x="931.66" y="373.19" width="650.44" height="654.85" rx="70" ry="70"/>
  <g id="_846626432">
   <path class="fil0" d="M343.76 220.76l0 38.1 59.53 0c-0.43,19.41 -6.72,45.31 -7.14,64.29l-52.39 0 0 185.72 -76.19 0 0 -185.72 -35.71 0 0 -64.29 35.71 0c0,-47.43 -0.71,-119.04 71.44,-119.04l64.28 0 0 61.9c-30.17,0 -59.53,-6.09 -59.53,19.04zm-326.19 88.11c0,72.02 6.4,109.18 40.58,168.95 47,82.19 148.02,147.71 242.76,147.71 81.92,0 123.23,-10.4 190.5,-54.75 31.62,-20.84 65.25,-58.24 84.7,-91.49 52.14,-89.16 54.76,-188.53 13.63,-283.05 -11.52,-26.48 -39.56,-63.12 -59.65,-83.22 -49.89,-49.87 -125.48,-87.49 -195.85,-87.49 -61.91,0 -89.36,2.3 -145.54,28.26 -43.99,20.31 -88.3,57.22 -115.41,96.5l-27.01 44.42c-13.04,25.05 -28.71,76.34 -28.71,114.16z"/>
  </g>
  <path class="fil1" d="M-268.46 193.27l-321.78 0c-36.33,0 -64.01,27.68 -64.01,64.01l0 321.78c0,36.33 27.68,64.01 64.01,64.01l321.78 0c36.33,0 64.01,-27.68 64.01,-64.01l0 -321.78c0,-36.33 -27.68,-64.01 -64.01,-64.01zm-160.89 359.84c74.39,0 134.94,-58.82 134.94,-129.75 0,-12.11 -1.73,-25.95 -5.19,-36.33l38.06 0 0 183.38c0,8.65 -6.92,17.3 -17.3,17.3l-301.02 0c-8.65,0 -17.3,-6.92 -17.3,-17.3l0 -185.11 39.79 0c-3.46,12.11 -5.19,24.22 -5.19,36.33 -1.73,72.66 58.82,131.48 133.21,131.48zm0 -51.9c-48.44,0 -86.5,-38.06 -86.5,-84.77 0,-46.71 38.06,-84.77 86.5,-84.77 48.44,0 86.5,38.06 86.5,84.77 0,48.44 -38.06,84.77 -86.5,84.77zm166.08 -185.11c0,10.38 -8.65,19.03 -19.03,19.03l-48.44 0c-10.38,0 -19.03,-8.65 -19.03,-19.03l0 -46.71c0,-10.38 8.65,-19.03 19.03,-19.03l48.44 0c10.38,0 19.03,8.65 19.03,19.03l0 46.71z"/>
  <path class="fil1" d="M1304.11 375.25c0,-2.2 -2.19,-2.2 -2.19,-4.39 -8.79,-17.58 -28.56,-39.54 -54.92,-63.7 -13.17,-10.99 -19.76,-19.77 -24.15,-24.17 -6.59,-8.78 -6.59,-15.37 -4.39,-24.16 2.19,-6.59 10.98,-17.56 26.34,-37.33 8.79,-10.99 13.18,-17.58 19.77,-24.17 32.95,-43.93 48.33,-72.49 43.94,-85.67l-2.2 -2.19c-2.2,-2.2 -4.39,-4.4 -8.79,-4.4 -4.39,-2.19 -10.98,-2.19 -17.57,0l-83.46 0c-2.2,0 -2.2,0 -6.59,0 -2.2,0 -4.4,0 -4.4,0l-2.19 0 -2.2 0 -2.2 2.2c-2.19,2.2 -2.19,2.2 -2.19,4.39 -8.79,24.17 -19.77,43.94 -30.76,65.9 -6.59,10.99 -13.18,21.97 -19.76,30.76 -6.6,8.78 -10.99,15.37 -15.38,19.77 -4.39,4.39 -8.79,6.59 -10.99,10.98 -2.19,2.2 -6.59,4.39 -6.59,2.2 -2.19,0 -4.39,0 -4.39,-2.2 -2.19,-2.2 -4.39,-4.39 -6.59,-6.59 -2.19,-2.2 -2.19,-6.59 -4.39,-10.98 0,-4.4 0,-8.79 0,-10.99 0,-2.19 0,-8.78 0,-13.18 0,-6.59 0,-10.98 0,-13.18 0,-6.59 0,-15.37 0,-24.16 0,-8.79 0,-15.38 0,-19.77 0,-4.39 0,-10.98 0,-15.38 0,-6.59 0,-10.98 0,-13.18 0,-2.19 -2.2,-6.59 -2.2,-8.78 -2.2,-2.2 -4.39,-4.39 -6.59,-6.59 -2.19,-2.2 -6.59,-2.2 -8.78,-4.4 -10.99,-2.19 -24.17,-4.39 -39.54,-4.39 -35.15,0 -59.31,2.2 -68.1,6.59 -4.39,2.2 -8.79,4.4 -10.98,8.79 -4.4,4.39 -4.4,6.59 -2.2,6.59 10.98,2.19 19.77,6.59 24.16,13.18l2.2 4.39c2.2,2.2 2.2,6.59 4.39,13.18 2.2,6.59 2.2,13.18 2.2,21.97 0,13.18 0,26.36 0,35.14 0,10.99 -2.2,17.58 -2.2,24.17 0,6.59 -2.19,10.98 -4.39,13.18 -2.2,4.39 -2.2,6.59 -4.39,6.59 0,0 0,2.19 -2.2,2.19 -2.2,0 -4.39,2.2 -8.79,2.2 -2.19,0 -6.59,-2.2 -8.78,-4.39 -4.4,-2.2 -8.79,-6.59 -10.99,-10.99 -4.39,-4.39 -8.78,-10.98 -13.17,-19.77 -4.39,-8.78 -10.98,-17.57 -15.37,-30.75l-4.4 -8.79c-2.19,-4.39 -6.59,-13.18 -10.98,-24.16 -4.39,-10.98 -8.79,-19.77 -13.18,-30.75 -2.2,-4.4 -4.39,-6.59 -6.59,-8.79l-2.2 0c0,0 -2.19,-2.2 -4.39,-2.2 -2.2,0 -4.39,-2.19 -6.59,-2.19l-79.08 0c-8.79,0 -13.18,2.19 -15.38,4.39l-2.19 2.2c0,0 0,2.19 0,4.39 0,2.2 0,4.39 2.19,8.79 10.99,26.36 24.17,52.72 37.35,79.08 13.18,24.16 26.36,46.13 35.14,61.49 10.99,15.38 19.77,30.76 30.76,43.94 10.98,13.18 17.57,21.96 19.77,26.36 4.39,4.39 6.59,6.59 8.78,8.78l6.59 6.59c4.4,4.39 10.99,10.99 19.77,17.58 8.78,6.58 19.76,13.18 30.75,19.77 10.98,6.58 24.16,10.98 37.34,15.37 15.38,4.4 28.56,6.59 41.73,4.4l32.96 0c6.59,0 10.98,-2.2 15.37,-6.6l2.2 -2.19c0,-2.2 2.2,-2.2 2.2,-4.4 0,-2.19 0,-4.39 0,-8.78 0,-8.79 0,-15.38 2.19,-21.97 2.2,-6.59 2.2,-10.98 4.4,-15.37 2.19,-4.4 4.39,-6.59 6.58,-8.79 2.2,-2.2 4.4,-4.39 4.4,-4.39l2.19 0c4.4,-2.2 10.99,0 15.38,4.39 6.59,4.39 13.18,10.98 17.57,17.57 4.4,6.59 10.99,13.18 19.78,21.97 8.78,8.79 15.37,15.37 19.77,17.57l6.58 4.39c4.4,2.2 8.79,4.4 15.38,6.6 6.59,2.19 10.98,2.19 15.38,2.19l74.67 -2.19c6.59,0 13.18,-2.2 17.58,-4.4 4.39,-2.2 6.59,-4.39 6.59,-8.79 0,-2.19 0,-6.58 0,-8.78 -4.4,-4.39 -4.4,-6.59 -4.4,-8.79z"/>
 </g>
</svg>
