<?xml version="1.0" encoding="UTF-8"?>
<!DOCTYPE svg PUBLIC "-//W3C//DTD SVG 1.1//EN" "http://www.w3.org/Graphics/SVG/1.1/DTD/svg11.dtd">
<!-- Creator: CorelDRAW 2020 (64-Bit) -->
<svg xmlns="http://www.w3.org/2000/svg" xml:space="preserve" width="30mm" height="16mm" version="1.1" style="shape-rendering:geometricPrecision; text-rendering:geometricPrecision; image-rendering:optimizeQuality; fill-rule:evenodd; clip-rule:evenodd"
viewBox="0 0 3000 1600"
 xmlns:xlink="http://www.w3.org/1999/xlink"
 xmlns:xodm="http://www.corel.com/coreldraw/odm/2003">
 <defs>
  <style type="text/css">
   <![CDATA[
    .fil0 {fill:#A63333}
   ]]>
  </style>
 </defs>
 <g id="Слой_x0020_1">
  <metadata id="CorelCorpID_0Corel-Layer"/>
  <g id="_1054862384">
   <path class="fil0" d="M326.27 1576.78c156.55,0 225.15,-92.81 335.53,-191.86l831.81 -738.05c26.79,16.11 234.64,207.76 276.23,245.09 94.12,84.45 183.66,164.81 277.79,249.28 78.28,70.24 411.05,386.69 496.63,422.61 198.16,83.15 403.85,-62.06 403.85,-211.14 0,-127.19 -34.45,-156.95 -129.54,-242.29l-1086.19 -974.72c-62.69,-56.26 -124.23,-110.63 -238.77,-110.63 -111.65,0 -173.87,52.37 -235.65,107.83 -128.45,115.27 -1134.89,1010.24 -1161.64,1047.07 -123.16,169.46 17.9,396.81 229.95,396.81z"/>
  </g>
 </g>
</svg>
