<?xml version="1.0" encoding="UTF-8"?>
<!DOCTYPE svg PUBLIC "-//W3C//DTD SVG 1.1//EN" "http://www.w3.org/Graphics/SVG/1.1/DTD/svg11.dtd">
<!-- Creator: CorelDRAW 2020 (64-Bit) -->
<svg xmlns="http://www.w3.org/2000/svg" xml:space="preserve" width="6.5mm" height="6.5mm" version="1.1" style="shape-rendering:geometricPrecision; text-rendering:geometricPrecision; image-rendering:optimizeQuality; fill-rule:evenodd; clip-rule:evenodd"
viewBox="0 0 650 650"
 xmlns:xlink="http://www.w3.org/1999/xlink"
 xmlns:xodm="http://www.corel.com/coreldraw/odm/2003">
 <defs>
  <style type="text/css">
   <![CDATA[
    .fil0 {fill:#019FFD}
   ]]>
  </style>
 </defs>
 <g id="Слой_x0020_1">
  <metadata id="CorelCorpID_0Corel-Layer"/>
  <g id="_918069920">
   <path class="fil0" d="M405.29 314.27c0,21.5 19.65,41.74 41.74,41.74 8.86,0 44.82,-13.99 56.49,-17.17 10.56,-2.88 16.31,-5.57 27.85,-8.98 11.02,-3.25 18.64,-6.12 29.53,-9.75 19.67,-6.56 38.48,-9.48 50.02,-23.63 20.31,-24.9 7.47,-80.27 -56.19,-58.66l-112.95 36.83c-13.46,4.36 -14.56,3.86 -23.76,13.07 -5.26,5.27 -5.23,4.28 -8.23,11.42 -0.58,1.38 -4.5,13.17 -4.5,15.13z"/>
   <path class="fil0" d="M19.8 265.16c0,42.94 21.25,43.6 76.41,61.1l95.46 29.75c29,0 59.84,-37.41 28.98,-68.26 -10.23,-10.23 -12.23,-9.3 -27.44,-14.3 -21.66,-7.11 -42.59,-13.3 -63.25,-20.23 -35.35,-11.86 -69.37,-31.61 -94.53,-14.16 -6.22,4.3 -15.63,16.59 -15.63,26.1z"/>
   <path class="fil0" d="M358.64 464.05c0,20.84 17.1,39.32 31.92,58.92l56.43 78.62c23.06,33.06 73.7,19.64 73.7,-24.6 0,-16.96 -67.93,-102.3 -81.51,-122.28 -3.49,-5.13 -10.68,-15.8 -14.86,-19.51 -26.53,-23.48 -65.68,-3.95 -65.68,28.85z"/>
   <path class="fil0" d="M118.02 579.45c0,39.21 48.09,55.74 72.68,23.58l73.92 -102.87c15.5,-20.53 15.45,-17.54 15.45,-41.02 0,-23.78 -37.48,-48.9 -65.68,-23.94l-72.17 99.71c-7.45,9.84 -24.2,29.49 -24.2,44.54z"/>
   <path class="fil0" d="M280.07 76.11l0 147.32c0,55.36 78.57,47.58 78.57,4.91l0 -152.23c0,-18.41 -22.74,-35.76 -39.29,-35.76 -16.54,0 -39.28,17.35 -39.28,35.76z"/>
  </g>
 </g>
</svg>
