<?xml version="1.0" encoding="UTF-8"?>
<!DOCTYPE svg PUBLIC "-//W3C//DTD SVG 1.1//EN" "http://www.w3.org/Graphics/SVG/1.1/DTD/svg11.dtd">
<!-- Creator: CorelDRAW 2020 (64-Bit) -->
<svg xmlns="http://www.w3.org/2000/svg" xml:space="preserve" width="6.5mm" height="6.5mm" version="1.1" style="shape-rendering:geometricPrecision; text-rendering:geometricPrecision; image-rendering:optimizeQuality; fill-rule:evenodd; clip-rule:evenodd"
viewBox="0 0 650 650"
 xmlns:xlink="http://www.w3.org/1999/xlink"
 xmlns:xodm="http://www.corel.com/coreldraw/odm/2003">
 <defs>
  <style type="text/css">
   <![CDATA[
    .fil0 {fill:#FFC50D}
   ]]>
  </style>
 </defs>
 <g id="Слой_x0020_1">
  <metadata id="CorelCorpID_0Corel-Layer"/>
  <path class="fil0" d="M23.66 252.37c-0.3,9.81 -6.52,36.61 5.78,45.39 13.29,9.49 50.56,-45.71 73.94,-59.32 7.23,-4.2 11.11,-9.62 17.13,-10.96 1.8,-6.22 71.3,-37.12 74.31,-41.29 14.32,-19.89 10.96,-41.98 30.62,-56.97 50.67,-38.56 113.94,-4.2 109.95,60.78 -2.14,34.88 -39.71,61.02 -73.12,58.55 -6,-0.45 -30.27,-7.06 -31.7,-12.45 -5.75,0.64 -13.65,-12.67 -25.46,-5.52 -31.72,19.19 -73.79,74.12 -91.55,106.75 -16.97,31.18 -32.67,65.19 -37.9,100.96 -3.61,24.71 -6.48,100.04 40.66,91.98 31.61,-5.4 54.85,-86.03 148.79,-148.81 20.78,-13.89 41.12,-28.22 63.37,-39.72 16.28,-8.41 32.05,-13.04 48.77,-21.72 8.95,-4.65 29.64,-3 36.49,-23.09 9.29,-27.2 21.83,-46.84 52.39,-54 71.23,-16.72 112.59,81.53 47.18,121.6 -41.72,25.57 -68.78,-6.91 -88.96,-6.87 -31.78,0.07 -92.9,59.74 -113.29,82.18 -28.37,31.21 -50.77,65.2 -66.24,104.55 -14.73,37.47 -20.63,71.32 28.6,85.86 60.66,17.91 147.84,-16.76 157.78,-17.14 1.51,-2.91 42.51,-21.03 54.93,-29.03 49.23,-31.74 91.27,-84.37 113.69,-137.86 20.85,-49.75 24.42,-100.28 20.71,-152.96 -2.66,-37.72 -28.24,-108.01 -53.09,-138.85 -58.26,-72.3 -120.05,-113.15 -213.53,-126.47 -72.05,-10.26 -115.32,5.33 -176.91,31.71 -28.74,12.31 -79.25,54.75 -98.42,81.35 -13.11,18.2 -23.49,36.09 -34.64,55.68 -7.62,13.4 -8.18,22.89 -14.26,34.2 -2.51,4.67 -5.24,20.42 -6.02,21.49z"/>
 </g>
</svg>
