<?xml version="1.0" encoding="UTF-8"?>
<!DOCTYPE svg PUBLIC "-//W3C//DTD SVG 1.1//EN" "http://www.w3.org/Graphics/SVG/1.1/DTD/svg11.dtd">
<!-- Creator: CorelDRAW 2020 (64-Bit) -->
<svg xmlns="http://www.w3.org/2000/svg" xml:space="preserve" width="6.5mm" height="6.5mm" version="1.1" style="shape-rendering:geometricPrecision; text-rendering:geometricPrecision; image-rendering:optimizeQuality; fill-rule:evenodd; clip-rule:evenodd"
viewBox="0 0 650 650"
 xmlns:xlink="http://www.w3.org/1999/xlink"
 xmlns:xodm="http://www.corel.com/coreldraw/odm/2003">
 <defs>
  <style type="text/css">
   <![CDATA[
    .fil0 {fill:black}
    .fil1 {fill:black;fill-rule:nonzero}
   ]]>
  </style>
 </defs>
 <g id="Слой_x0020_1">
  <metadata id="CorelCorpID_0Corel-Layer"/>
  <rect class="fil0" x="931.66" y="373.19" width="650.44" height="654.85" rx="70" ry="70"/>
  <g id="_851652576">
   <path class="fil0" d="M1003.02 807.26l0 38.1 59.53 0c-0.43,19.41 -6.72,45.31 -7.14,64.29l-52.39 0 0 185.72 -76.19 0 0 -185.72 -35.71 0 0 -64.29 35.71 0c0,-47.43 -0.71,-119.04 71.44,-119.04l64.28 0 0 61.9c-30.17,0 -59.53,-6.09 -59.53,19.04zm-326.19 88.11c0,72.02 6.4,109.18 40.58,168.95 47,82.19 148.02,147.71 242.76,147.71 81.92,0 123.23,-10.4 190.5,-54.75 31.62,-20.84 65.25,-58.24 84.7,-91.49 52.14,-89.16 54.76,-188.53 13.63,-283.05 -11.52,-26.48 -39.56,-63.12 -59.65,-83.22 -49.89,-49.87 -125.48,-87.49 -195.85,-87.49 -61.91,0 -89.36,2.3 -145.54,28.26 -43.99,20.31 -88.3,57.22 -115.41,96.5l-27.01 44.42c-13.04,25.05 -28.71,76.34 -28.71,114.16z"/>
  </g>
  <path class="fil1" d="M-268.46 193.27l-321.78 0c-36.33,0 -64.01,27.68 -64.01,64.01l0 321.78c0,36.33 27.68,64.01 64.01,64.01l321.78 0c36.33,0 64.01,-27.68 64.01,-64.01l0 -321.78c0,-36.33 -27.68,-64.01 -64.01,-64.01zm-160.89 359.84c74.39,0 134.94,-58.82 134.94,-129.75 0,-12.11 -1.73,-25.95 -5.19,-36.33l38.06 0 0 183.38c0,8.65 -6.92,17.3 -17.3,17.3l-301.02 0c-8.65,0 -17.3,-6.92 -17.3,-17.3l0 -185.11 39.79 0c-3.46,12.11 -5.19,24.22 -5.19,36.33 -1.73,72.66 58.82,131.48 133.21,131.48zm0 -51.9c-48.44,0 -86.5,-38.06 -86.5,-84.77 0,-46.71 38.06,-84.77 86.5,-84.77 48.44,0 86.5,38.06 86.5,84.77 0,48.44 -38.06,84.77 -86.5,84.77zm166.08 -185.11c0,10.38 -8.65,19.03 -19.03,19.03l-48.44 0c-10.38,0 -19.03,-8.65 -19.03,-19.03l0 -46.71c0,-10.38 8.65,-19.03 19.03,-19.03l48.44 0c10.38,0 19.03,8.65 19.03,19.03l0 46.71z"/>
  <path class="fil1" d="M614.22 468.66c0,-2.39 -2.38,-2.39 -2.38,-4.77 -9.56,-19.11 -31.04,-42.97 -59.69,-69.23 -14.32,-11.94 -21.48,-21.48 -26.25,-26.27 -7.17,-9.54 -7.17,-16.7 -4.78,-26.25 2.38,-7.16 11.94,-19.1 28.64,-40.58 9.55,-11.95 14.32,-19.11 21.49,-26.27 35.81,-47.74 52.52,-78.78 47.75,-93.1l-2.39 -2.38c-2.39,-2.39 -4.77,-4.79 -9.55,-4.79 -4.78,-2.38 -11.94,-2.38 -19.1,0l-90.71 0c-2.39,0 -2.39,0 -7.16,0 -2.39,0 -4.79,0 -4.79,0l-2.38 0 -2.39 0 -2.39 2.4c-2.38,2.39 -2.38,2.39 -2.38,4.77 -9.55,26.26 -21.48,47.75 -33.43,71.62 -7.16,11.94 -14.32,23.87 -21.47,33.42 -7.17,9.55 -11.94,16.71 -16.71,21.49 -4.78,4.77 -9.56,7.16 -11.95,11.93 -2.38,2.39 -7.16,4.77 -7.16,2.39 -2.38,0 -4.77,0 -4.77,-2.39 -2.38,-2.39 -4.77,-4.77 -7.16,-7.16 -2.38,-2.39 -2.38,-7.16 -4.77,-11.93 0,-4.78 0,-9.55 0,-11.95 0,-2.38 0,-9.54 0,-14.32 0,-7.16 0,-11.93 0,-14.32 0,-7.16 0,-16.71 0,-26.26 0,-9.55 0,-16.71 0,-21.49 0,-4.77 0,-11.93 0,-16.71 0,-7.16 0,-11.93 0,-14.32 0,-2.38 -2.39,-7.17 -2.39,-9.55 -2.4,-2.39 -4.78,-4.77 -7.17,-7.16 -2.38,-2.39 -7.16,-2.39 -9.54,-4.78 -11.94,-2.38 -26.27,-4.77 -42.97,-4.77 -38.2,0 -64.45,2.39 -74.01,7.16 -4.77,2.39 -9.55,4.78 -11.93,9.55 -4.78,4.78 -4.78,7.17 -2.39,7.17 11.93,2.38 21.48,7.16 26.26,14.32l2.39 4.77c2.39,2.39 2.39,7.16 4.77,14.32 2.39,7.17 2.39,14.33 2.39,23.88 0,14.33 0,28.65 0,38.19 0,11.94 -2.39,19.11 -2.39,26.27 0,7.16 -2.38,11.93 -4.77,14.32 -2.39,4.77 -2.39,7.16 -4.77,7.16 0,0 0,2.38 -2.4,2.38 -2.39,0 -4.77,2.39 -9.55,2.39 -2.38,0 -7.16,-2.39 -9.54,-4.77 -4.78,-2.39 -9.55,-7.16 -11.94,-11.94 -4.77,-4.77 -9.55,-11.93 -14.33,-21.49 -4.77,-9.54 -11.93,-19.09 -16.7,-33.41l-4.78 -9.56c-2.38,-4.77 -7.16,-14.32 -11.94,-26.25 -4.77,-11.94 -9.55,-21.49 -14.32,-33.42 -2.39,-4.78 -4.77,-7.16 -7.16,-9.55l-2.39 0c0,0 -2.38,-2.4 -4.77,-2.4 -2.39,0 -4.77,-2.38 -7.16,-2.38l-85.95 0c-9.55,0 -14.32,2.38 -16.71,4.78l-2.38 2.39c0,0 0,2.38 0,4.77 0,2.39 0,4.77 2.38,9.55 11.94,28.65 26.27,57.3 40.59,85.94 14.32,26.26 28.65,50.14 38.19,66.84 11.94,16.71 21.48,33.43 33.43,47.75 11.93,14.33 19.09,23.87 21.48,28.65 4.77,4.77 7.17,7.16 9.55,9.54l7.16 7.16c4.78,4.77 11.94,11.95 21.48,19.11 9.56,7.15 21.49,14.32 33.43,21.48 11.93,7.16 26.26,11.94 40.58,16.71 16.72,4.78 31.04,7.16 45.35,4.78l35.82 0c7.16,0 11.93,-2.39 16.71,-7.17l2.39 -2.38c0,-2.39 2.39,-2.39 2.39,-4.78 0,-2.38 0,-4.78 0,-9.55 0,-9.55 0,-16.71 2.38,-23.87 2.39,-7.16 2.39,-11.94 4.78,-16.71 2.38,-4.78 4.77,-7.16 7.15,-9.55 2.39,-2.39 4.78,-4.77 4.78,-4.77l2.38 0c4.78,-2.39 11.95,0 16.72,4.77 7.16,4.77 14.32,11.93 19.09,19.1 4.78,7.16 11.94,14.32 21.5,23.87 9.54,9.55 16.7,16.71 21.48,19.1l7.15 4.77c4.78,2.39 9.56,4.78 16.72,7.17 7.16,2.38 11.93,2.38 16.71,2.38l81.16 -2.38c7.16,0 14.33,-2.39 19.11,-4.78 4.77,-2.39 7.16,-4.77 7.16,-9.55 0,-2.38 0,-7.16 0,-9.55 -4.78,-4.77 -4.78,-7.16 -4.78,-9.55z"/>
 </g>
</svg>
