<?xml version="1.0" encoding="UTF-8"?>
<!DOCTYPE svg PUBLIC "-//W3C//DTD SVG 1.1//EN" "http://www.w3.org/Graphics/SVG/1.1/DTD/svg11.dtd">
<!-- Creator: CorelDRAW 2020 (64-Bit) -->
<svg xmlns="http://www.w3.org/2000/svg" xml:space="preserve" width="6.5mm" height="6.5mm" version="1.1" style="shape-rendering:geometricPrecision; text-rendering:geometricPrecision; image-rendering:optimizeQuality; fill-rule:evenodd; clip-rule:evenodd"
viewBox="0 0 650 650"
 xmlns:xlink="http://www.w3.org/1999/xlink"
 xmlns:xodm="http://www.corel.com/coreldraw/odm/2003">
 <defs>
  <style type="text/css">
   <![CDATA[
    .fil0 {fill:#E60000}
   ]]>
  </style>
 </defs>
 <g id="Слой_x0020_1">
  <metadata id="CorelCorpID_0Corel-Layer"/>
  <g id="_1048167968">
   <path class="fil0" d="M447.29 59.82c-53.2,15.09 -97.2,56.6 -96.51,124.16 52.77,12.62 92.01,38 113.52,75.27 48.65,84.33 3.53,211.77 -105.83,235.2 -61.56,13.19 -108.46,-8.1 -143,-37.07 -78.72,-66.03 -77.92,-190.93 -21.27,-274.32 25.55,-37.61 58.09,-69.56 99.04,-90.04 45.42,-22.71 88.53,-38.88 150.24,-34.9 -1.43,-1.26 0.53,0.08 -2.18,-1.64 -0.86,-0.55 -2.42,-1.4 -3.27,-1.8 -2.3,-1.09 -3.95,-1.62 -6.32,-2.56 -5.01,-1.98 -9.04,-3.72 -13.75,-5.29 -109.96,-36.71 -228.83,-10.33 -309.05,69.94 -56.07,56.11 -87.01,129.76 -89.12,205.8l0 16.64c1.04,37.8 9.22,75.92 25,112.51 12.91,29.92 30.3,55.47 51.42,79.24l8.89 10.14c6.67,6.62 12.22,11.4 19.02,17.77 3.18,2.98 6.9,5.58 10.56,8.46l33.13 22.69c32.7,19.56 72.43,33.48 111.14,38.55 94.14,12.34 185.42,-18.62 249.21,-82.4 56.33,-56.33 90.38,-126.79 90.38,-208.99 0,-36.13 -1.97,-63.55 -13.46,-98.17 -3.24,-9.77 -6.34,-18.69 -10.27,-27.79 -14.65,-33.91 -36.02,-65.09 -60.31,-89.37 -11.31,-11.31 -16.08,-17.15 -29.03,-26.79 -11.57,-8.6 -47.02,-34.54 -58.18,-35.24z"/>
  </g>
 </g>
</svg>
